<?xml version="1.0" encoding="UTF-8" standalone="no"?>
<!-- Created with Inkscape (http://www.inkscape.org/) -->

<svg
   width="16.181795mm"
   height="24.007063mm"
   viewBox="0 0 16.181795 24.007063"
   version="1.1"
   id="svg1"
   xml:space="preserve"
   xmlns:inkscape="http://www.inkscape.org/namespaces/inkscape"
   xmlns:sodipodi="http://sodipodi.sourceforge.net/DTD/sodipodi-0.dtd"
   xmlns="http://www.w3.org/2000/svg"
   xmlns:svg="http://www.w3.org/2000/svg"><sodipodi:namedview
     id="namedview1"
     pagecolor="#505050"
     bordercolor="#eeeeee"
     borderopacity="1"
     inkscape:showpageshadow="0"
     inkscape:pageopacity="0"
     inkscape:pagecheckerboard="0"
     inkscape:deskcolor="#505050"
     inkscape:document-units="mm"
     inkscape:export-bgcolor="#99999900" /><defs
     id="defs1" /><g
     inkscape:label="Layer 1"
     inkscape:groupmode="layer"
     id="layer1"
     transform="translate(-145.79125,-116.14777)"><path
       d="m 160.98677,135.04521 c -0.61913,-1.12712 -1.21179,-1.23825 -3.22792,-3.27818 -2.01612,-2.03994 -1.72508,-5.0853 -1.72508,-5.0853 h -1.05834 3.48457 v 0 a 3.3707917,3.3707917 0 0 0 0.44714,-1.64306 l -2.79929,-1.85208 a 3.8338125,3.8338125 0 1 0 -4.44765,0 l -2.80458,1.85208 a 3.2834792,3.2834792 0 0 0 0.43656,1.6219 h 2.43946 c 0.0185,0.24341 0.20109,3.11679 -1.72773,5.06677 -2.01612,2.03994 -2.60879,2.15371 -3.22791,3.27819 a 7.493,7.493 0 0 0 -0.90223,3.54541 l 0.0132,0.0847 c 0,0 0.4101,1.43669 7.56973,1.43669 7.15962,0 8.40845,-1.18798 8.43227,-1.48961 0.0238,-0.30162 -0.28311,-2.413 -0.90223,-3.53747 z"
       id="path1-02"
       style="stroke:#ffffff;stroke-width:0.165;stroke-dasharray:none;stroke-opacity:1"
       inkscape:export-filename="path1-02.png"
       inkscape:export-xdpi="96"
       inkscape:export-ydpi="96" /></g></svg>
