<?xml version="1.0" encoding="UTF-8" standalone="no"?>
<!-- Created with Inkscape (http://www.inkscape.org/) -->

<svg
   width="6.5148721mm"
   height="5.6371236mm"
   viewBox="0 0 6.5148721 5.6371236"
   version="1.1"
   id="svg1"
   xml:space="preserve"
   xmlns:inkscape="http://www.inkscape.org/namespaces/inkscape"
   xmlns:sodipodi="http://sodipodi.sourceforge.net/DTD/sodipodi-0.dtd"
   xmlns="http://www.w3.org/2000/svg"
   xmlns:svg="http://www.w3.org/2000/svg"><sodipodi:namedview
     id="namedview1"
     pagecolor="#505050"
     bordercolor="#eeeeee"
     borderopacity="1"
     inkscape:showpageshadow="0"
     inkscape:pageopacity="0"
     inkscape:pagecheckerboard="0"
     inkscape:deskcolor="#505050"
     inkscape:document-units="mm"
     inkscape:export-bgcolor="#99999900" /><defs
     id="defs1" /><g
     inkscape:label="Layer 1"
     inkscape:groupmode="layer"
     id="layer1"
     transform="translate(-101.51912,-145.12632)"><path
       d="m 102.75253,145.20882 c -0.25373,0 -0.44608,0.0788 -0.57705,0.23627 -0.13124,0.15743 -0.19685,0.38735 -0.19685,0.68924 v 0.91916 c 0,0.21299 -0.0228,0.37677 -0.0685,0.4916 -0.0458,0.11483 -0.13044,0.22225 -0.254,0.32226 -0.0365,0.0299 -0.0545,0.0545 -0.0545,0.0736 0,0.0191 0.018,0.0437 0.0542,0.0733 0.12595,0.10212 0.21114,0.21007 0.25586,0.32411 0.045,0.11377 0.0669,0.27702 0.0669,0.48974 v 0.91599 c 0,0.30427 0.0661,0.53525 0.19843,0.69268 0.1323,0.15743 0.32385,0.23601 0.57521,0.23601 h 0.23336 c 0.10028,0 0.16351,-0.005 0.1905,-0.0143 0.0265,-0.01 0.0397,-0.0336 0.0397,-0.0717 0,-0.0532 -0.0352,-0.0884 -0.10557,-0.10531 l -0.12779,-0.0288 c -0.28126,-0.0638 -0.42201,-0.34131 -0.42201,-0.8329 v -0.87128 c 0,-0.32993 -0.0799,-0.56277 -0.23972,-0.69903 l -0.0609,-0.0511 c -0.0296,-0.0254 -0.0444,-0.0447 -0.0444,-0.0574 0,-0.0148 0.0148,-0.0341 0.0447,-0.0574 l 0.0609,-0.0511 c 0.15954,-0.13626 0.23945,-0.3691 0.23945,-0.69903 v -0.87128 c 0,-0.29368 0.0357,-0.49741 0.10715,-0.61118 0.0714,-0.11377 0.22013,-0.20162 0.44582,-0.26326 0.0683,-0.0193 0.1024,-0.0503 0.1024,-0.0926 0,-0.0574 -0.0767,-0.0863 -0.23019,-0.0863 z m 3.81503,0.008 c -0.15346,0 -0.23019,0.0286 -0.23019,0.086 0,0.0426 0.0339,0.0736 0.10213,0.0926 0.22596,0.0617 0.37465,0.14949 0.44609,0.26326 0.0714,0.11378 0.10716,0.3175 0.10716,0.61119 v 0.87154 c 0,0.32967 0.0799,0.5625 0.23971,0.69876 l 0.0606,0.0511 c 0.0299,0.0236 0.045,0.0426 0.045,0.0574 0,0.013 -0.0151,0.032 -0.045,0.0574 l -0.0609,0.0511 c -0.15954,0.13626 -0.23944,0.36936 -0.23944,0.69903 v 0.87127 c 0,0.4916 -0.14076,0.76915 -0.42202,0.83318 l -0.12805,0.0286 c -0.0704,0.0169 -0.10531,0.0521 -0.10531,0.10531 0,0.0384 0.0132,0.0622 0.0397,0.072 0.027,0.01 0.0902,0.0143 0.1905,0.0143 h 0.23336 c 0.25136,0 0.44318,-0.0788 0.57521,-0.23627 0.13229,-0.15743 0.19843,-0.38815 0.19843,-0.69242 v -0.91598 c 0,-0.21299 0.0222,-0.37624 0.0669,-0.49001 0.045,-0.11377 0.12991,-0.22172 0.25586,-0.32385 0.0362,-0.0299 0.0542,-0.0542 0.0542,-0.0736 0,-0.019 -0.018,-0.0437 -0.0542,-0.0733 -0.12383,-0.10001 -0.2085,-0.20743 -0.25427,-0.32226 -0.0458,-0.11509 -0.0688,-0.27887 -0.0688,-0.49159 v -0.91917 c 0,-0.30215 -0.0653,-0.53181 -0.19659,-0.6895 -0.13096,-0.15743 -0.32332,-0.23601 -0.57679,-0.23601 z m -2.93317,2.12884 c -0.38523,0 -0.6985,0.29395 -0.6985,0.65564 h 0.26987 c 0,-0.22173 0.19236,-0.40217 0.42863,-0.40217 0.23601,0 0.42836,0.18044 0.42836,0.40217 h 0.26987 c 0,-0.36169 -0.313,-0.65564 -0.6985,-0.65564 z m 2.22409,0 c -0.38524,0 -0.69824,0.29395 -0.69824,0.65564 h 0.26988 c 0,-0.22173 0.19235,-0.40217 0.42862,-0.40217 0.23601,0 0.42863,0.18044 0.42863,0.40217 h 0.26987 c 0,-0.36169 -0.31353,-0.65564 -0.6985,-0.65564 z m -1.68778,1.2237 v 0.14843 c 0,0.33787 0.28099,0.61277 0.626,0.61277 0.34528,0 0.62627,-0.2749 0.62627,-0.61277 v -0.14817 h -0.24712 v 0.14817 c 0,0.23204 -0.20108,0.37729 -0.37915,0.37729 -0.17806,0 -0.39158,-0.0722 -0.39158,-0.37729 v -0.14817 z"
       id="path1"
       style="stroke:#ffffff;stroke-width:0.165;stroke-dasharray:none;stroke-opacity:1" /></g></svg>
