<?xml version="1.0" encoding="UTF-8" standalone="no"?>
<!-- Created with Inkscape (http://www.inkscape.org/) -->

<svg
   width="4.2076402mm"
   height="6.5186348mm"
   viewBox="0 0 4.2076402 6.5186348"
   version="1.1"
   id="svg1"
   xml:space="preserve"
   xmlns:inkscape="http://www.inkscape.org/namespaces/inkscape"
   xmlns:sodipodi="http://sodipodi.sourceforge.net/DTD/sodipodi-0.dtd"
   xmlns="http://www.w3.org/2000/svg"
   xmlns:svg="http://www.w3.org/2000/svg"><sodipodi:namedview
     id="namedview1"
     pagecolor="#505050"
     bordercolor="#eeeeee"
     borderopacity="1"
     inkscape:showpageshadow="0"
     inkscape:pageopacity="0"
     inkscape:pagecheckerboard="0"
     inkscape:deskcolor="#505050"
     inkscape:document-units="mm"
     inkscape:export-bgcolor="#99999900" /><defs
     id="defs1" /><g
     inkscape:label="Layer 1"
     inkscape:groupmode="layer"
     id="layer1"
     transform="translate(-71.768175,-131.03177)"><path
       d="m 73.72077,137.46335 c -0.95462,-0.055 -1.66,-0.54954 -1.70604,-1.34355 0.18389,0.002 0.36381,-0.003 0.54769,-0.002 0.0593,0.35507 0.28178,0.64294 0.70988,0.80063 0.41883,0.13123 0.98875,0.12171 1.34461,-0.046 0.35745,-0.16827 0.56753,-0.48207 0.66225,-0.94641 0.0561,-0.2757 0.0624,-0.45879 0.0611,-0.77258 l -0.001,-0.43154 h -0.0156 c -0.32941,0.67839 -0.87709,0.93398 -1.47902,0.91943 -1.51871,-0.0143 -2.032,-1.19962 -1.99178,-2.27701 0.003,-1.38668 0.85195,-2.25875 1.99945,-2.24763 0.62283,-0.037 1.21841,0.36036 1.4695,0.89164 l 0.0156,5.3e-4 5.3e-4,-0.77205 0.55536,0.001 -5.3e-4,4.15845 c -0.0511,1.86267 -1.15782,2.08757 -2.17197,2.06666 z m 1.61396,-4.13623 c -0.0254,-0.86254 -0.4236,-1.75154 -1.45601,-1.75815 -1.04616,-0.004 -1.48828,0.95038 -1.48272,1.81239 -0.003,0.9099 0.43471,1.6682 1.24433,1.78911 1.1991,0.15637 1.73329,-0.90249 1.6944,-1.84335 z"
       id="path1-4"
       style="stroke:#ffffff;stroke-width:0.165;stroke-dasharray:none;stroke-opacity:1" /></g></svg>
