<?xml version="1.0" encoding="UTF-8" standalone="no"?>
<!-- Created with Inkscape (http://www.inkscape.org/) -->

<svg
   width="6.5140243mm"
   height="6.5149126mm"
   viewBox="0 0 6.5140243 6.5149126"
   version="1.1"
   id="svg1"
   xml:space="preserve"
   xmlns:inkscape="http://www.inkscape.org/namespaces/inkscape"
   xmlns:sodipodi="http://sodipodi.sourceforge.net/DTD/sodipodi-0.dtd"
   xmlns="http://www.w3.org/2000/svg"
   xmlns:svg="http://www.w3.org/2000/svg"><sodipodi:namedview
     id="namedview1"
     pagecolor="#505050"
     bordercolor="#eeeeee"
     borderopacity="1"
     inkscape:showpageshadow="0"
     inkscape:pageopacity="0"
     inkscape:pagecheckerboard="0"
     inkscape:deskcolor="#505050"
     inkscape:document-units="mm"
     inkscape:export-bgcolor="#99999900" /><defs
     id="defs1" /><g
     inkscape:label="Layer 1"
     inkscape:groupmode="layer"
     id="layer1"
     transform="translate(-85.051561,-171.1459)"><path
       d="m 87.900648,172.85831 a 0.06270625,0.06270625 0 0 0 -0.0783,0.0437 c -0.21166,0.73687 0.74586,1.47611 1.37954,1.96533 0.17277,0.13335 0.32173,0.24844 0.42095,0.34184 0.4617,0.43444 0.67839,0.75432 0.72311,0.84084 a 0.0635,0.0635 0 0 0 0.0728,0.0323 c 0.0124,-0.003 1.25042,-0.34396 1.04087,-1.2102 a 0.06799792,0.06799792 0 0 0 -0.006,-0.0159 l -1.50309,-2.72653 0.19208,-0.82338 a 0.0635,0.0635 0 0 0 -0.0693,-0.0775 c -0.44979,0.0532 -0.82417,0.11509 -1.19062,0.37703 -1.28164,-0.0855 -2.30664,0.23812 -2.96677,0.93636 -0.69348,0.73316 -0.84694,1.73275 -0.75936,2.42411 0.20188,1.49622 1.37345,2.28362 2.40268,2.52201 0.26273,0.0606 0.52229,0.09 0.77338,0.09 0.88477,0 1.66608,-0.36539 2.10238,-1.01865 a 0.0635,0.0635 0 0 0 -0.0984,-0.0794 c -0.90249,0.93318 -2.38178,1.09378 -3.5179,0.38205 -1.18665,-0.74347 -1.64094,-2.22514 -1.03452,-3.37317 0.60431,-1.14406 1.67852,-1.63592 3.02445,-1.38509 0.0148,0.003 0.0304,0 0.0437,-0.008 l 0.0886,-0.0521 c 0.245,-0.14446 0.51884,-0.30612 0.76014,-0.3384 l -0.18362,0.52731 a 0.06429375,0.06429375 0 0 0 0.005,0.0535 l 1.6092,2.69663 c -0.0511,0.53658 -0.45138,0.66305 -0.58896,0.69083 -0.0759,-0.17066 -0.21537,-0.36089 -0.61013,-0.74163 -0.11166,-0.10768 -0.32015,-0.24897 -0.56198,-0.41275 -0.62547,-0.42359 -1.57083,-1.06362 -1.42636,-1.58326 a 0.06323542,0.06323542 0 0 0 -0.0437,-0.0781 z"
       id="path1-0"
       style="stroke:#ffffff;stroke-width:0.165;stroke-dasharray:none;stroke-opacity:1" /></g></svg>
