<?xml version="1.0" encoding="UTF-8" standalone="no"?>
<!-- Created with Inkscape (http://www.inkscape.org/) -->

<svg
   width="6.5150013mm"
   height="6.5150094mm"
   viewBox="0 0 6.5150013 6.5150094"
   version="1.1"
   id="svg1"
   xml:space="preserve"
   inkscape:version="1.3 (0e150ed, 2023-07-21)"
   sodipodi:docname="drawing.svg"
   xmlns:inkscape="http://www.inkscape.org/namespaces/inkscape"
   xmlns:sodipodi="http://sodipodi.sourceforge.net/DTD/sodipodi-0.dtd"
   xmlns="http://www.w3.org/2000/svg"
   xmlns:svg="http://www.w3.org/2000/svg"><sodipodi:namedview
     id="namedview1"
     pagecolor="#505050"
     bordercolor="#eeeeee"
     borderopacity="1"
     inkscape:showpageshadow="0"
     inkscape:pageopacity="0"
     inkscape:pagecheckerboard="0"
     inkscape:deskcolor="#505050"
     inkscape:document-units="mm"
     inkscape:export-bgcolor="#99999900"
     inkscape:zoom="2.4363944"
     inkscape:cx="366.73044"
     inkscape:cy="547.73562"
     inkscape:window-width="2048"
     inkscape:window-height="1014"
     inkscape:window-x="979"
     inkscape:window-y="439"
     inkscape:window-maximized="0"
     inkscape:current-layer="layer1" /><defs
     id="defs1" /><g
     inkscape:label="Layer 1"
     inkscape:groupmode="layer"
     id="layer1"
     transform="translate(-109.61325,-140.40812)"><path
       d="m 115.10567,145.90189 h -0.94033 v -1.47347 c 0,-0.35136 -0.007,-0.80354 -0.49001,-0.80354 -0.49027,0 -0.56515,0.38233 -0.56515,0.77761 v 1.4994 h -0.94033 v -3.03001 h 0.90329 v 0.41301 h 0.0122 c 0.12621,-0.23812 0.43313,-0.48947 0.89165,-0.48947 0.95276,0 1.12898,0.62706 1.12898,1.4433 v 1.66317 z m -3.99785,-3.44461 c -0.30269,0 -0.54584,-0.24501 -0.54584,-0.54637 0,-0.30109 0.24342,-0.54583 0.54584,-0.54583 0.30162,0 0.5461,0.24474 0.5461,0.54583 0,0.30136 -0.24474,0.54637 -0.5461,0.54637 z m 0.47148,3.44461 h -0.94297 v -3.03001 h 0.94297 z m 3.9968,-5.41126 h -5.41179 c -0.25902,0 -0.46857,0.20479 -0.46857,0.45746 v 5.43508 c 0,0.25294 0.20955,0.45746 0.46857,0.45746 h 5.411 c 0.25876,0 0.47043,-0.20452 0.47043,-0.45746 v -5.43508 c 0,-0.25267 -0.21167,-0.45746 -0.47043,-0.45746 z"
       id="path1-7"
       style="stroke:#ffffff;stroke-width:0.165;stroke-dasharray:none;stroke-opacity:1" /></g></svg>
