<?xml version="1.0" encoding="UTF-8" standalone="no"?>
<!-- Created with Inkscape (http://www.inkscape.org/) -->

<svg
   width="6.614583mm"
   height="6.6145835mm"
   viewBox="0 0 6.614583 6.6145835"
   version="1.1"
   id="svg1"
   xml:space="preserve"
   xmlns:inkscape="http://www.inkscape.org/namespaces/inkscape"
   xmlns:sodipodi="http://sodipodi.sourceforge.net/DTD/sodipodi-0.dtd"
   xmlns="http://www.w3.org/2000/svg"
   xmlns:svg="http://www.w3.org/2000/svg"><sodipodi:namedview
     id="namedview1"
     pagecolor="#505050"
     bordercolor="#eeeeee"
     borderopacity="1"
     inkscape:showpageshadow="0"
     inkscape:pageopacity="0"
     inkscape:pagecheckerboard="0"
     inkscape:deskcolor="#505050"
     inkscape:document-units="mm"
     inkscape:export-bgcolor="#99999900" /><defs
     id="defs1" /><g
     inkscape:label="Layer 1"
     inkscape:groupmode="layer"
     id="layer1"
     transform="translate(-140.81101,-165.54368)"><path
       d="m 144.11831,165.67596 a 3.175,3.175 0 0 0 -3.175,3.175 3.175,3.175 0 0 0 3.175,3.175 3.175,3.175 0 0 0 3.175,-3.175 3.175,3.175 0 0 0 -3.175,-3.175 z m 1.32556,1.25518 c 0.18203,0 0.33073,0.14843 0.33073,0.33047 a 0.33072917,0.33072917 0 0 1 -0.66093,0.0148 l -0.68712,-0.14472 -0.21167,0.99139 c 0.4826,0.0185 0.92075,0.16722 1.23666,0.3937 0.0815,-0.0818 0.19315,-0.12991 0.31935,-0.12991 0.25612,0 0.46408,0.20796 0.46408,0.46408 0,0.18944 -0.11509,0.35269 -0.26723,0.42704 a 0.82311875,0.82311875 0 0 1 0.0111,0.13758 c 0,0.71279 -0.82815,1.28852 -1.85315,1.28852 -1.02499,0 -1.85314,-0.57573 -1.85314,-1.28852 0,-0.0484 0.004,-0.0968 0.0114,-0.14129 a 0.46249167,0.46249167 0 0 1 -0.2749,-0.42333 c 0,-0.25612 0.20796,-0.46408 0.46408,-0.46408 0.1225,0 0.23759,0.0519 0.31935,0.12965 0.31935,-0.23363 0.76147,-0.37836 1.25518,-0.39344 l 0.23416,-1.10649 a 0.0904875,0.0904875 0 0 1 0.037,-0.0521 0.09260417,0.09260417 0 0 1 0.063,-0.0111 l 0.76888,0.16325 a 0.32120417,0.32120417 0 0 1 0.29316,-0.18548 z m -2.05317,1.91982 c -0.1823,0 -0.33073,0.1487 -0.33073,0.33073 0,0.18177 0.14843,0.3302 0.33073,0.3302 0.18177,0 0.3302,-0.14843 0.3302,-0.33047 0,-0.18203 -0.14843,-0.33046 -0.33046,-0.33046 z m 1.45521,0 c -0.18177,0 -0.3302,0.14843 -0.3302,0.33073 0,0.18177 0.14843,0.3302 0.33046,0.3302 0.18204,0 0.33047,-0.14843 0.33047,-0.33047 0,-0.18176 -0.1487,-0.33046 -0.33073,-0.33046 z m -1.44621,1.05569 a 0.08651875,0.08651875 0 0 0 -0.0611,0.0249 0.0873125,0.0873125 0 0 0 0,0.1225 c 0.22278,0.22278 0.65722,0.24156 0.78343,0.24156 0.12621,0 0.55695,-0.0148 0.78343,-0.24156 a 0.09551458,0.09551458 0 0 0 0.008,-0.1225 0.0873125,0.0873125 0 0 0 -0.12277,0 c -0.14472,0.14102 -0.44555,0.19314 -0.66463,0.19314 -0.21907,0 -0.52361,-0.0518 -0.66463,-0.19314 a 0.08625417,0.08625417 0 0 0 -0.0614,-0.0251 z"
       id="path1-70"
       style="stroke:#ffffff;stroke-width:0.264583;stroke-opacity:1" /></g></svg>
