<?xml version="1.0" encoding="UTF-8" standalone="no"?>
<!-- Created with Inkscape (http://www.inkscape.org/) -->

<svg
   width="6.5150013mm"
   height="6.5150013mm"
   viewBox="0 0 6.5150013 6.5150013"
   version="1.1"
   id="svg1"
   xml:space="preserve"
   xmlns:inkscape="http://www.inkscape.org/namespaces/inkscape"
   xmlns:sodipodi="http://sodipodi.sourceforge.net/DTD/sodipodi-0.dtd"
   xmlns="http://www.w3.org/2000/svg"
   xmlns:svg="http://www.w3.org/2000/svg"><sodipodi:namedview
     id="namedview1"
     pagecolor="#505050"
     bordercolor="#eeeeee"
     borderopacity="1"
     inkscape:showpageshadow="0"
     inkscape:pageopacity="0"
     inkscape:pagecheckerboard="0"
     inkscape:deskcolor="#505050"
     inkscape:document-units="mm"
     inkscape:export-bgcolor="#99999900" /><defs
     id="defs1" /><g
     inkscape:label="Layer 1"
     inkscape:groupmode="layer"
     id="layer1"
     transform="translate(-103.79083,-124.61524)"><path
       d="m 108.42654,126.46965 c -0.009,-0.0725 0,-0.15716 0,-0.15716 v -0.003 c 0.0373,-0.18891 0.20399,-0.33179 0.40349,-0.33179 0.001,0 0.002,2.7e-4 0.004,2.7e-4 h 5.3e-4 c 0.22728,0 0.41196,0.18468 0.41196,0.41169 0,0.22701 -0.18442,0.41169 -0.41196,0.41169 -7.9e-4,0 -0.002,-2.6e-4 -0.002,-2.6e-4 h -0.002 c -0.19632,-2.6e-4 -0.36513,-0.13917 -0.40349,-0.33179 z m 1.79679,-1.36445 v 5.53508 c 0,0.22516 -0.17093,0.40746 -0.3818,0.40746 h -5.58615 c -0.21087,0 -0.38205,-0.1823 -0.38205,-0.40746 v -5.53508 c 0,-0.2249 0.17118,-0.40746 0.38205,-0.40746 h 5.58615 c 0.21087,0 0.3818,0.18256 0.3818,0.40746 z m -0.60934,4.23518 c 0,-0.43285 -0.35084,-0.78369 -0.78343,-0.78369 -0.34846,0 -0.65537,0.23019 -0.75248,0.56462 h -0.46513 l -0.72496,-1.24804 -5.3e-4,-0.001 5.3e-4,-0.001 0.7239,-1.24592 h 0.46249 c 0.12091,0.41566 0.55615,0.65458 0.97181,0.53366 0.41566,-0.12091 0.65485,-0.55615 0.53367,-0.97181 -0.12092,-0.41566 -0.55616,-0.65458 -0.97155,-0.53367 a 0.78417208,0.78417208 0 0 0 -0.53393,0.53367 h -0.70511 l -0.007,-0.004 -0.85382,1.46897 -0.007,0.0111 h -0.50721 c -0.12091,-0.41567 -0.55615,-0.65458 -0.97181,-0.5334 -0.41566,0.12117 -0.65458,0.55615 -0.53366,0.97181 0.12117,0.41566 0.55641,0.65458 0.97181,0.53366 0.25744,-0.0749 0.45852,-0.27649 0.53366,-0.53366 h 0.51885 l 0.84879,1.4605 0.004,-0.002 h 0.71173 a 0.782955,0.782955 0 0 0 0.75194,0.56462 h 5.3e-4 c 0.43286,0 0.78343,-0.35084 0.78343,-0.7837 z m -0.77602,-0.42836 c -0.19659,5.3e-4 -0.36539,0.13917 -0.40402,0.33179 -10e-4,0.008 -10e-4,0.0151 -0.002,0.0225 -0.001,0.005 -0.004,0.008 -0.005,0.0122 -0.0108,0.0796 0,0.15928 0,0.15928 0.0458,0.22278 0.26326,0.36592 0.48604,0.31988 0.1516,-0.0312 0.2659,-0.14499 0.30797,-0.28787 0.0172,-0.0455 0.0278,-0.0942 0.0278,-0.14578 0,-0.22728 -0.18441,-0.41196 -0.41116,-0.41196 z m -3.58881,-1.45812 c -0.22701,0 -0.41169,0.18468 -0.41169,0.41196 0,0.002 5.3e-4,0.003 5.3e-4,0.005 0,7.9e-4 -2.7e-4,0.001 -2.7e-4,0.002 2.7e-4,0.22595 0.18336,0.40931 0.40958,0.40958 0.14314,-2.7e-4 0.26855,-0.0736 0.34184,-0.18468 0.0452,-0.0659 0.072,-0.14579 0.072,-0.23151 0,-0.22755 -0.18468,-0.41222 -0.41196,-0.41223 z"
       id="path1-2"
       style="stroke:#ffffff;stroke-width:0.165;stroke-dasharray:none;stroke-opacity:1" /></g></svg>
