<?xml version="1.0" encoding="UTF-8" standalone="no"?>
<!-- Created with Inkscape (http://www.inkscape.org/) -->

<svg
   width="6.2870679mm"
   height="6.4147248mm"
   viewBox="0 0 6.2870679 6.4147248"
   version="1.1"
   id="svg1"
   xml:space="preserve"
   xmlns:inkscape="http://www.inkscape.org/namespaces/inkscape"
   xmlns:sodipodi="http://sodipodi.sourceforge.net/DTD/sodipodi-0.dtd"
   xmlns="http://www.w3.org/2000/svg"
   xmlns:svg="http://www.w3.org/2000/svg"><sodipodi:namedview
     id="namedview1"
     pagecolor="#505050"
     bordercolor="#eeeeee"
     borderopacity="1"
     inkscape:showpageshadow="0"
     inkscape:pageopacity="0"
     inkscape:pagecheckerboard="0"
     inkscape:deskcolor="#505050"
     inkscape:document-units="mm"
     inkscape:export-bgcolor="#99999900" /><defs
     id="defs1" /><g
     inkscape:label="Layer 1"
     inkscape:groupmode="layer"
     id="layer1"
     transform="translate(-119.76739,-166.4918)"><path
       d="m 122.56822,166.5243 c -0.8374,0 -1.53538,0.60457 -1.68169,1.39991 a 1.1972396,1.1972396 0 0 0 -1.08664,1.19062 1.1972396,1.1972396 0 0 0 1.19591,1.19592 h 1.78885 a 0.165365,0.165365 0 1 0 0,-0.33073 h -1.78911 a 0.86598125,0.86598125 0 0 1 -0.86519,-0.86519 0.86598125,0.86598125 0 0 1 1.34911,-0.71728 0.16536458,0.16536458 0 0 0 0.18521,-0.27384 1.18745,1.18745 0 0 0 -0.4445,-0.18257 1.3819187,1.3819187 0 0 1 1.34832,-1.08585 1.3813896,1.3813896 0 0 1 1.36895,1.20915 1.1877146,1.1877146 0 0 0 -0.12912,0.0807 0.16536458,0.16536458 0 1 0 0.19341,0.26802 0.85857292,0.85857292 0 0 1 0.50589,-0.16298 0.86730417,0.86730417 0 0 1 0.84746,0.69056 0.16542416,0.16542416 0 0 0 0.32411,-0.0664 1.1993562,1.1993562 0 0 0 -1.17157,-0.95515 1.2012083,1.2012083 0 0 0 -0.25347,0.0278 c -0.13785,-0.80671 -0.84058,-1.42266 -1.68593,-1.42266 z m 1.37372,2.81517 a 0.24473958,0.24473958 0 0 0 -0.12224,0.0286 0.24156458,0.24156458 0 0 0 -0.0828,0.0767 0.33602083,0.33602083 0 0 0 -0.0463,0.11298 0.63235417,0.63235417 0 0 0 -0.0143,0.13599 c 0,0.0479 0.005,0.0934 0.0143,0.13679 0.01,0.0434 0.0251,0.0812 0.0463,0.11377 a 0.23786042,0.23786042 0 0 0 0.0828,0.0786 c 0.0336,0.0193 0.0743,0.0291 0.12224,0.0291 0.0476,0 0.0884,-0.01 0.12171,-0.0291 a 0.23733125,0.23733125 0 0 0 0.0817,-0.0783 c 0.0212,-0.0328 0.0362,-0.0707 0.0458,-0.11404 0.01,-0.0434 0.0143,-0.0889 0.0143,-0.13679 0,-0.0476 -0.005,-0.0931 -0.0143,-0.13599 a 0.33628542,0.33628542 0 0 0 -0.0458,-0.11272 0.23838958,0.23838958 0 0 0 -0.0817,-0.077 0.24262292,0.24262292 0 0 0 -0.12171,-0.0286 z m 1.71609,0 a 0.24473958,0.24473958 0 0 0 -0.12224,0.0286 0.24156458,0.24156458 0 0 0 -0.0828,0.0767 0.33602083,0.33602083 0 0 0 -0.0463,0.11298 0.63235417,0.63235417 0 0 0 -0.014,0.13599 c 0,0.0479 0.005,0.0934 0.014,0.13679 0.01,0.0434 0.0251,0.0812 0.0463,0.11377 a 0.23786042,0.23786042 0 0 0 0.0828,0.0786 c 0.0336,0.0193 0.0744,0.0291 0.12224,0.0291 0.0476,0 0.0884,-0.01 0.1217,-0.0291 a 0.23733125,0.23733125 0 0 0 0.082,-0.0783 c 0.0206,-0.0328 0.036,-0.0707 0.0455,-0.11404 0.01,-0.0434 0.0143,-0.0889 0.0143,-0.13679 0,-0.0476 -0.005,-0.0931 -0.0143,-0.13599 a 0.33628542,0.33628542 0 0 0 -0.0458,-0.11272 0.23838958,0.23838958 0 0 0 -0.0815,-0.077 0.24235833,0.24235833 0 0 0 -0.12197,-0.0286 z m -2.25875,0.018 -0.22225,0.16351 0.0828,0.11377 0.12594,-0.0974 v 0.49663 h 0.15955 v -0.67654 z m 1.71609,0 -0.22252,0.16351 0.0831,0.11377 0.12621,-0.0974 v 0.49663 h 0.15954 v -0.67654 z m -1.17343,0.11774 c 0.0212,0 0.0378,0.007 0.0511,0.0222 0.0132,0.0151 0.023,0.0336 0.0302,0.0556 0.007,0.022 0.0116,0.0458 0.0143,0.0712 a 0.67230625,0.67230625 0 0 1 0,0.14102 c -0.003,0.0257 -0.007,0.0495 -0.0143,0.0714 a 0.15451667,0.15451667 0 0 1 -0.0302,0.0556 0.06429375,0.06429375 0 0 1 -0.0511,0.0225 0.06561667,0.06561667 0 0 1 -0.0516,-0.0228 0.15451667,0.15451667 0 0 1 -0.0312,-0.0553 0.32940625,0.32940625 0 0 1 -0.0148,-0.0714 0.69982292,0.69982292 0 0 1 0,-0.14102 c 0.003,-0.0254 0.008,-0.0492 0.0148,-0.0714 a 0.15425208,0.15425208 0 0 1 0.0312,-0.0553 0.06614583,0.06614583 0 0 1 0.0516,-0.0222 z m 1.71609,0 c 0.0212,0 0.0381,0.007 0.0511,0.0222 0.0132,0.0151 0.023,0.0336 0.0302,0.0556 0.007,0.022 0.0116,0.0458 0.0143,0.0712 a 0.67230625,0.67230625 0 0 1 0,0.14102 c -0.003,0.0257 -0.007,0.0495 -0.0143,0.0714 a 0.15451667,0.15451667 0 0 1 -0.0302,0.0556 0.06429375,0.06429375 0 0 1 -0.0511,0.0225 0.06588125,0.06588125 0 0 1 -0.0516,-0.0228 0.15372292,0.15372292 0 0 1 -0.0309,-0.0553 0.32940625,0.32940625 0 0 1 -0.0148,-0.0714 0.69902917,0.69902917 0 0 1 0,-0.14102 c 0.003,-0.0254 0.007,-0.0492 0.0148,-0.0714 a 0.15345833,0.15345833 0 0 1 0.0309,-0.0553 0.06614583,0.06614583 0 0 1 0.0516,-0.0222 z m -0.57971,0.92868 a 0.2460625,0.2460625 0 0 0 -0.1225,0.0288 0.24024167,0.24024167 0 0 0 -0.0825,0.077 c -0.0212,0.0323 -0.0368,0.0696 -0.0463,0.11271 a 0.63050208,0.63050208 0 0 0 -0.0143,0.136 c 0,0.0476 0.005,0.0934 0.0143,0.13652 0.01,0.0434 0.0249,0.0815 0.0463,0.1143 a 0.24077083,0.24077083 0 0 0 0.0825,0.0783 0.24341667,0.24341667 0 0 0 0.1225,0.0291 c 0.0476,0 0.0881,-0.01 0.12171,-0.0291 a 0.23600833,0.23600833 0 0 0 0.0815,-0.0783 0.34925,0.34925 0 0 0 0.046,-0.1143 c 0.01,-0.0431 0.0143,-0.0886 0.0143,-0.13652 0,-0.0476 -0.005,-0.0931 -0.0143,-0.136 a 0.33707917,0.33707917 0 0 0 -0.046,-0.11271 0.23547917,0.23547917 0 0 0 -0.0817,-0.077 0.2428875,0.2428875 0 0 0 -0.12171,-0.0286 z m -1.69386,0.0185 -0.22251,0.16324 0.0831,0.11377 0.12594,-0.0976 v 0.49689 h 0.15981 v -0.67654 z m 0.56224,0 -0.22251,0.16324 0.0831,0.11377 0.1262,-0.0976 v 0.49689 h 0.15955 v -0.67654 z m 0.55986,0 -0.22225,0.16324 0.0828,0.11377 0.12621,-0.0976 v 0.49689 h 0.15954 v -0.67654 z m 0.5715,0.11721 c 0.0212,0 0.0381,0.007 0.0513,0.0225 a 0.16007292,0.16007292 0 0 1 0.0302,0.0556 c 0.007,0.022 0.0116,0.0455 0.014,0.0712 a 0.69823542,0.69823542 0 0 1 0,0.14076 0.33866667,0.33866667 0 0 1 -0.014,0.0714 0.15478125,0.15478125 0 0 1 -0.0302,0.0556 0.06455833,0.06455833 0 0 1 -0.0511,0.0225 0.06614583,0.06614583 0 0 1 -0.0519,-0.0225 0.15583958,0.15583958 0 0 1 -0.031,-0.0556 0.32940625,0.32940625 0 0 1 -0.0148,-0.0714 0.68712292,0.68712292 0 0 1 0,-0.14076 c 0.003,-0.0257 0.007,-0.0492 0.0148,-0.0714 a 0.15583958,0.15583958 0 0 1 0.031,-0.0553 0.06588125,0.06588125 0 0 1 0.0519,-0.0225 z m -1.78038,0.81306 a 0.17885833,0.17885833 0 0 0 -0.0886,0.0206 0.17488958,0.17488958 0 0 0 -0.0601,0.0558 0.24077083,0.24077083 0 0 0 -0.0336,0.082 c -0.007,0.0312 -0.0106,0.064 -0.0106,0.0987 0,0.0347 0.003,0.0677 0.0106,0.0992 a 0.2460625,0.2460625 0 0 0 0.0336,0.0828 0.17197917,0.17197917 0 0 0 0.0601,0.0569 c 0.0243,0.014 0.054,0.0212 0.0886,0.0212 a 0.17330208,0.17330208 0 0 0 0.0884,-0.0212 0.17197917,0.17197917 0 0 0 0.0595,-0.0569 c 0.0151,-0.0238 0.0265,-0.0513 0.0331,-0.0828 a 0.46302083,0.46302083 0 0 0 0.0106,-0.0992 c 0,-0.0344 -0.004,-0.0675 -0.0106,-0.0987 a 0.24632708,0.24632708 0 0 0 -0.0331,-0.082 0.17409583,0.17409583 0 0 0 -0.0595,-0.0556 0.17647708,0.17647708 0 0 0 -0.0884,-0.0212 z m 0.8165,0 a 0.17859375,0.17859375 0 0 0 -0.0889,0.0206 0.17488958,0.17488958 0 0 0 -0.0598,0.0558 0.23997708,0.23997708 0 0 0 -0.0336,0.082 0.44714583,0.44714583 0 0 0 -0.0106,0.0987 c 0,0.0347 0.003,0.0677 0.0106,0.0992 a 0.24553333,0.24553333 0 0 0 0.0336,0.0828 c 0.0153,0.0238 0.0355,0.0429 0.0598,0.0569 0.0246,0.014 0.0542,0.0212 0.0889,0.0212 a 0.17330208,0.17330208 0 0 0 0.0884,-0.0212 0.17197917,0.17197917 0 0 0 0.0593,-0.0569 c 0.0153,-0.0238 0.0265,-0.0513 0.0333,-0.0828 a 0.46355,0.46355 0 0 0 0,-0.1979 0.24870833,0.24870833 0 0 0 -0.0333,-0.082 0.17383125,0.17383125 0 0 0 -0.0593,-0.0556 0.17647708,0.17647708 0 0 0 -0.0884,-0.0212 z m 1.35149,0 a 0.17859375,0.17859375 0 0 0 -0.0889,0.0206 0.17488958,0.17488958 0 0 0 -0.0598,0.0558 0.24077083,0.24077083 0 0 0 -0.0336,0.082 c -0.007,0.0312 -0.0106,0.064 -0.0106,0.0987 0,0.0347 0.003,0.0677 0.0106,0.0992 a 0.24632708,0.24632708 0 0 0 0.0336,0.0828 c 0.0153,0.0238 0.0354,0.0429 0.0598,0.0569 0.0246,0.014 0.0542,0.0212 0.0889,0.0212 0.0344,0 0.0643,-0.007 0.0884,-0.0212 a 0.17197917,0.17197917 0 0 0 0.0593,-0.0569 c 0.0153,-0.0238 0.0265,-0.0513 0.0333,-0.0828 a 0.46302083,0.46302083 0 0 0 0.0106,-0.0992 c 0,-0.0344 -0.004,-0.0675 -0.0106,-0.0987 a 0.24950208,0.24950208 0 0 0 -0.0333,-0.082 0.17383125,0.17383125 0 0 0 -0.0593,-0.0556 0.17674167,0.17674167 0 0 0 -0.0884,-0.0212 z m -1.76159,0.0132 -0.1614,0.11853 0.0601,0.0823 0.0915,-0.0704 v 0.36036 h 0.11589 v -0.49106 z m 0.81174,0 -0.1614,0.11853 0.0601,0.0823 0.0915,-0.0704 v 0.36036 h 0.11589 v -0.49106 z m 1.35149,0 -0.16166,0.11853 0.0603,0.0823 0.0915,-0.0704 v 0.36036 h 0.11589 v -0.49106 z m -2.56963,0.0852 c 0.0153,0 0.0278,0.005 0.037,0.0164 a 0.11138958,0.11138958 0 0 1 0.022,0.04 0.254,0.254 0 0 1 0.0106,0.0519 0.511175,0.511175 0 0 1 0,0.10213 0.2524125,0.2524125 0 0 1 -0.0106,0.0521 0.11138958,0.11138958 0 0 1 -0.022,0.0402 0.04656667,0.04656667 0 0 1 -0.037,0.0161 0.047625,0.047625 0 0 1 -0.0373,-0.0159 0.11297708,0.11297708 0 0 1 -0.0225,-0.0405 0.23468542,0.23468542 0 0 1 -0.0108,-0.0521 0.51858333,0.51858333 0 0 1 0,-0.10213 0.23627292,0.23627292 0 0 1 0.0106,-0.0519 0.111125,0.111125 0 0 1 0.0228,-0.04 0.04788958,0.04788958 0 0 1 0.0373,-0.0164 z m 0.8165,0 c 0.0153,0 0.0275,0.005 0.037,0.0164 a 0.11138958,0.11138958 0 0 1 0.0217,0.04 0.24870833,0.24870833 0 0 1 0.0106,0.0519 0.50429583,0.50429583 0 0 1 0,0.10213 0.2460625,0.2460625 0 0 1 -0.0106,0.0521 0.11138958,0.11138958 0 0 1 -0.0217,0.0402 0.04656667,0.04656667 0 0 1 -0.037,0.0161 0.047625,0.047625 0 0 1 -0.0373,-0.0159 0.111125,0.111125 0 0 1 -0.0228,-0.0405 0.2238375,0.2238375 0 0 1 -0.0106,-0.0521 0.51990625,0.51990625 0 0 1 -0.003,-0.0516 c 0,-0.0151 0.001,-0.032 0.003,-0.0505 a 0.22463125,0.22463125 0 0 1 0.0109,-0.0519 0.111125,0.111125 0 0 1 0.0227,-0.04 0.04815417,0.04815417 0 0 1 0.0373,-0.0164 z m 1.35149,0 c 0.0154,0 0.0275,0.005 0.0371,0.0164 a 0.11138958,0.11138958 0 0 1 0.0217,0.04 0.24341667,0.24341667 0 0 1 0.0106,0.0519 0.51937708,0.51937708 0 0 1 0,0.10213 0.24950208,0.24950208 0 0 1 -0.0106,0.0521 0.11138958,0.11138958 0 0 1 -0.0217,0.0402 0.04683125,0.04683125 0 0 1 -0.0371,0.0161 0.047625,0.047625 0 0 1 -0.0376,-0.0159 0.11562292,0.11562292 0 0 1 -0.0225,-0.0405 0.25135417,0.25135417 0 0 1 -0.0106,-0.0521 0.51990625,0.51990625 0 0 1 -0.003,-0.0516 c 0,-0.0151 0.001,-0.032 0.003,-0.0505 a 0.25373542,0.25373542 0 0 1 0.0106,-0.0519 0.12435417,0.12435417 0 0 1 0.0228,-0.04 0.04788958,0.04788958 0 0 1 0.0376,-0.0164 z m -0.44555,0.47995 a 0.17859375,0.17859375 0 0 0 -0.0889,0.0209 0.174625,0.174625 0 0 0 -0.0601,0.0556 0.24077083,0.24077083 0 0 0 -0.0336,0.082 0.45799375,0.45799375 0 0 0 0,0.19791 0.24844375,0.24844375 0 0 0 0.0336,0.0831 c 0.0156,0.0238 0.0355,0.0429 0.0601,0.0569 0.0246,0.014 0.0542,0.0212 0.0889,0.0212 a 0.174625,0.174625 0 0 0 0.0884,-0.0212 0.17145,0.17145 0 0 0 0.0593,-0.0569 c 0.0153,-0.0238 0.0265,-0.0516 0.0333,-0.0831 a 0.45958125,0.45958125 0 0 0 -2.6e-4,-0.19764 0.24553333,0.24553333 0 0 0 -0.0331,-0.082 0.17197917,0.17197917 0 0 0 -0.0593,-0.0558 0.17674167,0.17674167 0 0 0 -0.0884,-0.0209 z m 0.81041,0 a 0.17885833,0.17885833 0 0 0 -0.0889,0.0209 0.17568333,0.17568333 0 0 0 -0.0601,0.0556 0.2397125,0.2397125 0 0 0 -0.0336,0.082 0.460375,0.460375 0 0 0 0,0.19791 0.24765,0.24765 0 0 0 0.0336,0.0831 0.174625,0.174625 0 0 0 0.0601,0.0569 c 0.0243,0.014 0.054,0.0212 0.0889,0.0212 a 0.1730375,0.1730375 0 0 0 0.0884,-0.0212 0.17145,0.17145 0 0 0 0.059,-0.0569 c 0.0153,-0.0238 0.0265,-0.0516 0.0333,-0.0831 a 0.460375,0.460375 0 0 0 0,-0.19764 0.24553333,0.24553333 0 0 0 -0.0333,-0.082 0.17197917,0.17197917 0 0 0 -0.059,-0.0558 0.1762125,0.1762125 0 0 0 -0.0884,-0.0209 z m -0.40878,0.0132 -0.16166,0.11853 0.0603,0.0825 0.0915,-0.0706 v 0.36063 h 0.11589 v -0.49107 z m -0.40163,0.0855 c 0.0151,0 0.0275,0.005 0.037,0.0161 a 0.111125,0.111125 0 0 1 0.0217,0.0402 0.24077083,0.24077083 0 0 1 0.0106,0.0516 0.52017083,0.52017083 0 0 1 0,0.10239 0.25161875,0.25161875 0 0 1 -0.0106,0.0521 0.11138958,0.11138958 0 0 1 -0.0217,0.0402 0.04683125,0.04683125 0 0 1 -0.037,0.0159 0.047625,0.047625 0 0 1 -0.0376,-0.0159 0.11324167,0.11324167 0 0 1 -0.0225,-0.0402 0.24182917,0.24182917 0 0 1 -0.0106,-0.0521 0.51858333,0.51858333 0 0 1 -0.003,-0.0516 c 0,-0.0154 8e-4,-0.0323 0.003,-0.0508 a 0.24421042,0.24421042 0 0 1 0.0109,-0.0516 c 0.005,-0.0159 0.0127,-0.0291 0.0225,-0.0402 a 0.04788958,0.04788958 0 0 1 0.0376,-0.0161 z m 0.81041,0 c 0.0151,0 0.0275,0.005 0.037,0.0161 a 0.111125,0.111125 0 0 1 0.0217,0.0402 0.24870833,0.24870833 0 0 1 0.0106,0.0516 0.50535417,0.50535417 0 0 1 0,0.10239 0.2460625,0.2460625 0 0 1 -0.0106,0.0521 0.11165417,0.11165417 0 0 1 -0.022,0.0402 0.04630208,0.04630208 0 0 1 -0.037,0.0159 0.047625,0.047625 0 0 1 -0.0373,-0.0159 0.11191875,0.11191875 0 0 1 -0.0225,-0.0402 0.23997708,0.23997708 0 0 1 -0.0106,-0.0521 0.5159375,0.5159375 0 0 1 0,-0.10239 0.24209375,0.24209375 0 0 1 0.0106,-0.0516 c 0.005,-0.0159 0.0127,-0.0291 0.0225,-0.0402 a 0.04815417,0.04815417 0 0 1 0.0376,-0.0161 z m -2.56989,0.0489 a 0.12303125,0.12303125 0 0 0 -0.0614,0.0146 0.12065,0.12065 0 0 0 -0.0415,0.0386 0.16589375,0.16589375 0 0 0 -0.0235,0.0569 0.30903333,0.30903333 0 0 0 -0.007,0.0685 c 0,0.0238 0.002,0.0468 0.007,0.0688 a 0.17145,0.17145 0 0 0 0.0235,0.0572 c 0.0106,0.0167 0.0246,0.0296 0.0415,0.0394 a 0.12144375,0.12144375 0 0 0 0.0614,0.0148 c 0.0238,0 0.0444,-0.005 0.0611,-0.0148 a 0.1190625,0.1190625 0 0 0 0.0413,-0.0394 0.17727083,0.17727083 0 0 0 0.023,-0.0574 0.3222625,0.3222625 0 0 0 0,-0.13706 0.17118542,0.17118542 0 0 0 -0.023,-0.0569 0.11853333,0.11853333 0 0 0 -0.0413,-0.0386 0.12117917,0.12117917 0 0 0 -0.0609,-0.0146 z m 0.27834,0.009 -0.11192,0.082 0.0418,0.0574 0.0635,-0.0489 v 0.24976 h 0.0802 v -0.34025 z m -0.27834,0.0593 c 0.0106,0 0.0193,0.004 0.0257,0.0111 a 0.07514167,0.07514167 0 0 1 0.0151,0.0278 0.1825625,0.1825625 0 0 1 0.007,0.036 c 10e-4,0.013 0.002,0.0243 0.002,0.0352 0,0.0106 -7.9e-4,0.0227 -0.002,0.0357 a 0.180975,0.180975 0 0 1 -0.007,0.036 0.07540625,0.07540625 0 0 1 -0.0151,0.0278 0.03254375,0.03254375 0 0 1 -0.0257,0.0114 0.03307292,0.03307292 0 0 1 -0.0259,-0.0114 0.07884583,0.07884583 0 0 1 -0.0156,-0.0278 0.161925,0.161925 0 0 1 -0.007,-0.036 0.36777083,0.36777083 0 0 1 0,-0.0709 0.16404167,0.16404167 0 0 1 0.007,-0.036 0.07858125,0.07858125 0 0 1 0.0159,-0.0278 0.03307292,0.03307292 0 0 1 0.0257,-0.0111 z m 0.9988,0.36883 a 0.12250208,0.12250208 0 0 0 -0.0614,0.0143 0.11959167,0.11959167 0 0 0 -0.0415,0.0386 0.16430625,0.16430625 0 0 0 -0.0233,0.0566 0.31485417,0.31485417 0 0 0 0,0.13732 0.16959792,0.16959792 0 0 0 0.0233,0.0574 0.12170833,0.12170833 0 0 0 0.0415,0.0397 0.12117917,0.12117917 0 0 0 0.0614,0.0143 0.12012083,0.12012083 0 0 0 0.0614,-0.0146 0.1190625,0.1190625 0 0 0 0.041,-0.0394 0.17568333,0.17568333 0 0 0 0.023,-0.0574 0.31458958,0.31458958 0 0 0 0,-0.13732 0.1698625,0.1698625 0 0 0 -0.023,-0.0566 0.11800417,0.11800417 0 0 0 -0.041,-0.0386 0.12144375,0.12144375 0 0 0 -0.0614,-0.0143 z m 0.27834,0.009 -0.11192,0.082 0.0418,0.0572 0.0635,-0.0489 v 0.25003 h 0.0802 v -0.34026 z m -0.27834,0.059 c 0.0106,0 0.0193,0.004 0.0259,0.0114 a 0.079375,0.079375 0 0 1 0.0151,0.0278 0.17012708,0.17012708 0 0 1 0.007,0.0357 0.34660417,0.34660417 0 0 1 0,0.0709 0.1730375,0.1730375 0 0 1 -0.007,0.0362 0.08122708,0.08122708 0 0 1 -0.0151,0.0278 0.03280833,0.03280833 0 0 1 -0.0259,0.0111 0.03307292,0.03307292 0 0 1 -0.0259,-0.0111 0.07752292,0.07752292 0 0 1 -0.0156,-0.0278 0.1635125,0.1635125 0 0 1 -0.007,-0.0362 0.36089167,0.36089167 0 0 1 0,-0.0709 0.161925,0.161925 0 0 1 0.007,-0.0357 0.07593542,0.07593542 0 0 1 0.0159,-0.0278 0.03254375,0.03254375 0 0 1 0.0257,-0.0114 z"
       id="path1-9"
       style="stroke:#ffffff;stroke-width:0.065;stroke-dasharray:none;stroke-opacity:1" /></g></svg>
